<svg width="24" height="24" viewBox="0 0 24 24" fill="none" xmlns="http://www.w3.org/2000/svg">
<path d="M12 22C13.3135 22.0017 14.6143 21.7438 15.8278 21.2412C17.0413 20.7385 18.1435 20.001 19.071 19.071C20.001 18.1435 20.7385 17.0413 21.2412 15.8278C21.7438 14.6143 22.0017 13.3135 22 12C22.0017 10.6865 21.7438 9.3857 21.2411 8.17222C20.7385 6.95875 20.001 5.85656 19.071 4.92901C18.1435 3.99902 17.0413 3.26151 15.8278 2.75885C14.6143 2.25619 13.3135 1.99831 12 2.00001C10.6865 1.99833 9.3857 2.25623 8.17222 2.75889C6.95875 3.26154 5.85656 3.99904 4.92901 4.92901C3.99904 5.85656 3.26154 6.95875 2.75889 8.17222C2.25623 9.3857 1.99833 10.6865 2.00001 12C1.99831 13.3135 2.25619 14.6143 2.75885 15.8278C3.26151 17.0413 3.99902 18.1435 4.92901 19.071C5.85656 20.001 6.95875 20.7385 8.17222 21.2411C9.3857 21.7438 10.6865 22.0017 12 22V22Z" stroke="#37474F" stroke-linejoin="round"/>
<path fill-rule="evenodd" clip-rule="evenodd" d="M12 5.75C12.2652 5.75 12.5196 5.85536 12.7071 6.04289C12.8946 6.23043 13 6.48478 13 6.75C13 7.01522 12.8946 7.26957 12.7071 7.45711C12.5196 7.64464 12.2652 7.75 12 7.75C11.7348 7.75 11.4804 7.64464 11.2929 7.45711C11.1054 7.26957 11 7.01522 11 6.75C11 6.48478 11.1054 6.23043 11.2929 6.04289C11.4804 5.85536 11.7348 5.75 12 5.75Z" fill="#37474F"/>
<path d="M12.25 17V10H11.25" stroke="#37474F" stroke-linecap="round" stroke-linejoin="round"/>
<path d="M10.5 17H14" stroke="#37474F" stroke-linecap="round" stroke-linejoin="round"/>
</svg>
