<svg width="24" height="24" viewBox="0 0 24 24" fill="none" xmlns="http://www.w3.org/2000/svg">
<path d="M21 4H3C2.44772 4 2 4.44772 2 5V19C2 19.5523 2.44772 20 3 20H21C21.5523 20 22 19.5523 22 19V5C22 4.44772 21.5523 4 21 4Z" stroke="#37474F" stroke-linecap="round" stroke-linejoin="round"/>
<path d="M2 5C2 4.73478 2.10536 4.48043 2.29289 4.29289C2.48043 4.10536 2.73478 4 3 4H21C21.2652 4 21.5196 4.10536 21.7071 4.29289C21.8946 4.48043 22 4.73478 22 5V8H2V5Z" stroke="#37474F" stroke-linecap="round" stroke-linejoin="round"/>
<path d="M12.5 11.5L11.5 17" stroke="#37474F" stroke-linecap="round"/>
<path d="M15.5 11.5L18.5 14L15.5 17" stroke="#37474F" stroke-linecap="round" stroke-linejoin="round"/>
<path d="M8.5 11.5L5.5 14L8.5 17" stroke="#37474F" stroke-linecap="round" stroke-linejoin="round"/>
</svg>
