<svg width="24" height="24" viewBox="0 0 24 24" fill="none" xmlns="http://www.w3.org/2000/svg">
<path d="M5 22H19C19.2652 22 19.5196 21.8946 19.7071 21.7071C19.8946 21.5196 20 21.2652 20 21V7L15.5 2H5C4.73478 2 4.48043 2.10536 4.29289 2.29289C4.10536 2.48043 4 2.73478 4 3V21C4 21.2652 4.10536 21.5196 4.29289 21.7071C4.48043 21.8946 4.73478 22 5 22Z" stroke="#37474F" stroke-linecap="round" stroke-linejoin="round"/>
<path d="M12 15.5V14C13.105 14 14 12.9925 14 11.75C14 10.5075 13.105 9.5 12 9.5C10.895 9.5 10 10.5075 10 11.75" stroke="#37474F" stroke-linecap="round" stroke-linejoin="round"/>
<path fill-rule="evenodd" clip-rule="evenodd" d="M12 19.25C12.2652 19.25 12.5196 19.1446 12.7071 18.9571C12.8946 18.7696 13 18.5152 13 18.25C13 17.9848 12.8946 17.7304 12.7071 17.5429C12.5196 17.3554 12.2652 17.25 12 17.25C11.7348 17.25 11.4804 17.3554 11.2929 17.5429C11.1054 17.7304 11 17.9848 11 18.25C11 18.5152 11.1054 18.7696 11.2929 18.9571C11.4804 19.1446 11.7348 19.25 12 19.25Z" fill="#37474F"/>
<path d="M15 2V7H20" stroke="#37474F" stroke-linecap="round" stroke-linejoin="round"/>
</svg>
