<svg width="56" height="40" viewBox="0 0 56 40" fill="none" xmlns="http://www.w3.org/2000/svg">
<path d="M54.364 17.9339L37.3015 0.843289C36.1771 -0.281096 34.3219 -0.281096 33.1694 0.843289C32.9445 1.06817 32.7758 1.29304 32.6634 1.54603C32.6072 1.65847 32.5509 1.77091 32.5228 1.88335L19.0583 31.9606L7.02741 19.9859L22.0379 4.9754C23.1623 3.85102 23.1623 1.99578 22.0379 0.843289C20.9136 -0.281096 19.0583 -0.281096 17.9058 0.843289L0.843289 17.9339C-0.281096 19.0583 -0.281096 20.9136 0.843289 22.0661L16.5004 37.7231L17.9058 39.1286L17.9339 39.1567C18.721 39.9438 19.9297 40.253 21.026 39.8313C21.7569 39.5502 22.319 38.9881 22.6283 38.3134L22.6564 38.2572L36.1771 8.03935L48.1799 20.0422L33.1975 34.9965C32.8883 35.2776 32.6634 35.643 32.4947 36.0365C31.9325 37.5264 32.6634 39.2129 34.1813 39.8032C35.2776 40.2249 36.4863 39.9157 37.2734 39.1286L37.3015 39.1005L54.3359 22.0661C55.5165 20.9136 55.5165 19.0583 54.364 17.9339Z" fill="url(#paint0_linear_269_267)"/>
<defs>
<linearGradient id="paint0_linear_269_267" x1="0" y1="19.979" x2="55.2216" y2="19.979" gradientUnits="userSpaceOnUse">
<stop stop-color="#985BEF"/>
<stop offset="0.3822" stop-color="#9964EF"/>
<stop offset="1" stop-color="#9C7DF0"/>
</linearGradient>
</defs>
</svg>
